<svg width="29" height="25" viewBox="0 0 29 25" fill="none" xmlns="http://www.w3.org/2000/svg">
<g clip-path="url(#clip0_2_13)">
<path d="M23.875 0H5.125C3.40588 0 2 1.40735 2 3.125V21.875C2 23.5956 3.40588 25 5.125 25H14.6088V16.0353H11.6132V12.1309H14.6088V10.175C14.6088 7.15882 16.8338 4.79706 19.675 4.79706H22.4353V9.20588H19.9662C19.3221 9.20588 19.1294 9.57647 19.1294 10.0897V12.1309H22.4353V16.0353H19.1294V25H23.875C25.5956 25 27 23.5956 27 21.875V3.125C27 1.40735 25.5956 0 23.875 0Z" fill="black"/>
</g>
<defs>
<clipPath id="clip0_2_13">
<rect width="25" height="25" fill="white" transform="translate(2)"/>
</clipPath>
</defs>
</svg>
